<?xml version="1.0" encoding="UTF-8"?>
<svg xmlns="http://www.w3.org/2000/svg" width="65.86mm" height="48.86mm" viewBox="104.82 71.32 65.86 48.86">
  <path d="M 124.241 88.595 L 124.058 88.442 L 123.798 88.264 L 122.380 87.632 L 122.324 87.614 L 120.465 87.221 L 118.535 87.221 L 116.676 87.614 L 116.620 87.632 L 114.885 88.407 L 113.484 89.422 L 113.482 89.448 L 113.484 89.422 L 111.180 87.118 L 111.174 87.121 L 111.180 87.118 L 111.180 82.282 L 111.174 82.279 L 111.180 82.282 L 115.782 77.680 L 115.779 77.674 L 115.782 77.680 L 130.718 77.680 L 130.721 77.674 L 130.718 77.680 L 135.253 82.215 L 135.261 82.212 L 135.253 82.215 L 135.243 82.263 L 135.220 82.500 L 135.243 82.737 L 135.256 82.794 L 135.320 82.993 L 135.344 83.047 L 135.464 83.252 L 135.623 83.430 L 135.666 83.470 L 135.860 83.608 L 136.077 83.707 L 136.133 83.725 L 136.337 83.768 L 136.395 83.774 L 136.634 83.773 L 136.781 83.743 L 136.785 83.733 L 136.781 83.743 L 141.200 88.162 L 141.206 88.159 L 141.200 88.162 L 141.200 90.140 L 141.219 90.157 L 141.200 90.140 L 141.178 90.140 L 141.102 90.148 L 141.038 90.161 L 140.982 90.180 L 140.922 90.206 L 140.872 90.235 L 140.796 90.292 L 140.713 90.384 L 140.651 90.492 L 140.621 90.581 L 140.608 90.638 L 140.600 90.732 L 140.600 92.107 L 140.608 92.202 L 140.621 92.259 L 140.651 92.348 L 140.697 92.431 L 140.732 92.478 L 140.775 92.527 L 140.819 92.566 L 140.896 92.621 L 140.982 92.660 L 141.038 92.679 L 141.130 92.697 L 141.387 92.699 L 141.505 92.677 L 141.716 92.655 L 141.985 92.652 L 142.255 92.678 L 142.375 92.700 L 142.615 92.698 L 142.722 92.679 L 142.778 92.660 L 142.864 92.621 L 142.964 92.548 L 143.028 92.478 L 143.063 92.431 L 143.109 92.348 L 143.139 92.259 L 143.152 92.202 L 143.160 92.107 L 143.160 90.802 L 143.154 90.799 L 143.160 90.802 L 156.282 77.680 L 156.279 77.674 L 156.282 77.680 L 162.218 77.680 L 162.221 77.674 L 162.218 77.680 L 164.019 79.481 L 164.083 79.536 L 164.172 79.595 L 164.269 79.639 L 164.311 79.653 L 164.320 79.655 L 164.334 79.646 L 164.320 79.655 L 164.320 104.718 L 164.326 104.721 L 164.320 104.718 L 155.482 113.556 L 155.482 113.589 L 155.482 113.556 L 151.979 110.053 L 151.971 110.056 L 151.979 110.053 L 151.989 110.005 L 152.011 109.797 L 152.011 109.738 L 151.984 109.502 L 151.902 109.247 L 151.784 109.040 L 151.749 108.993 L 151.589 108.817 L 151.372 108.659 L 151.155 108.561 L 151.099 108.543 L 150.866 108.495 L 150.598 108.495 L 150.337 108.550 L 150.092 108.659 L 149.899 108.798 L 149.855 108.837 L 149.696 109.016 L 149.654 109.088 L 149.659 109.097 L 149.654 109.088 L 148.009 109.088 L 148.007 109.094 L 148.009 109.088 L 145.740 106.818 L 145.734 106.821 L 145.740 106.818 L 145.740 105.500 L 145.735 105.445 L 145.719 105.393 L 145.693 105.344 L 145.658 105.302 L 145.616 105.267 L 145.567 105.241 L 145.515 105.225 L 145.460 105.220 L 143.460 105.220 L 143.405 105.225 L 143.353 105.241 L 143.304 105.267 L 143.262 105.302 L 143.227 105.344 L 143.201 105.393 L 143.185 105.445 L 143.180 105.500 L 143.180 105.998 L 143.218 106.258 L 143.229 106.472 L 143.218 106.741 L 143.180 107.002 L 143.180 107.500 L 143.185 107.555 L 143.201 107.607 L 143.227 107.656 L 143.262 107.698 L 143.304 107.733 L 143.353 107.759 L 143.405 107.775 L 143.460 107.780 L 144.778 107.780 L 144.781 107.774 L 144.778 107.780 L 147.247 110.249 L 147.328 110.317 L 147.374 110.347 L 147.468 110.396 L 147.595 110.435 L 147.728 110.448 L 149.654 110.448 L 149.659 110.438 L 149.654 110.448 L 149.696 110.519 L 149.876 110.719 L 150.092 110.876 L 150.309 110.975 L 150.365 110.993 L 150.569 111.036 L 150.628 111.042 L 150.866 111.041 L 151.014 111.011 L 151.017 111.001 L 151.014 111.011 L 154.984 114.981 L 155.065 115.049 L 155.110 115.079 L 155.179 115.116 L 155.230 115.137 L 155.305 115.160 L 155.359 115.171 L 155.478 115.180 L 155.577 115.175 L 155.628 115.167 L 155.689 115.153 L 155.789 115.115 L 155.881 115.062 L 155.917 115.036 L 155.981 114.981 L 165.481 105.481 L 165.549 105.400 L 165.579 105.354 L 165.616 105.285 L 165.637 105.234 L 165.660 105.159 L 165.671 105.105 L 165.680 105.000 L 165.680 79.000 L 165.671 78.895 L 165.660 78.841 L 165.637 78.766 L 165.616 78.715 L 165.579 78.646 L 165.549 78.600 L 165.499 78.540 L 165.460 78.501 L 165.378 78.435 L 165.285 78.384 L 165.234 78.363 L 165.159 78.340 L 165.105 78.329 L 165.000 78.320 L 164.782 78.320 L 164.779 78.326 L 164.782 78.320 L 162.981 76.519 L 162.917 76.463 L 162.881 76.438 L 162.828 76.405 L 162.731 76.361 L 162.628 76.333 L 162.585 76.326 L 162.500 76.320 L 156.000 76.320 L 155.895 76.329 L 155.841 76.340 L 155.766 76.363 L 155.715 76.384 L 155.646 76.421 L 155.600 76.451 L 155.519 76.519 L 142.560 89.478 L 142.511 89.597 L 142.560 89.478 L 142.560 87.880 L 142.547 87.747 L 142.517 87.646 L 142.496 87.595 L 142.445 87.502 L 142.361 87.399 L 137.747 82.785 L 137.738 82.788 L 137.747 82.785 L 137.757 82.737 L 137.780 82.500 L 137.752 82.234 L 137.669 81.979 L 137.551 81.772 L 137.517 81.725 L 137.356 81.549 L 137.165 81.407 L 137.114 81.378 L 136.896 81.283 L 136.663 81.232 L 136.605 81.225 L 136.366 81.227 L 136.218 81.257 L 136.215 81.267 L 136.218 81.257 L 131.481 76.519 L 131.417 76.463 L 131.328 76.405 L 131.231 76.361 L 131.128 76.333 L 131.085 76.326 L 131.000 76.320 L 115.500 76.320 L 115.395 76.329 L 115.341 76.340 L 115.266 76.363 L 115.215 76.384 L 115.146 76.421 L 115.100 76.451 L 115.019 76.519 L 110.019 81.519 L 109.963 81.583 L 109.905 81.672 L 109.861 81.769 L 109.833 81.872 L 109.826 81.915 L 109.820 82.000 L 109.820 87.400 L 109.980 87.400 L 109.820 87.400 L 109.833 87.533 L 109.862 87.634 L 109.883 87.685 L 109.935 87.778 L 110.019 87.881 L 112.544 90.405 L 112.574 90.404 L 112.544 90.405 L 112.033 90.975 L 111.081 92.620 L 111.057 92.673 L 110.479 94.453 L 110.467 94.510 L 110.270 96.400 L 110.467 98.290 L 110.479 98.347 L 111.068 100.154 L 112.033 101.825 L 113.303 103.238 L 113.347 103.278 L 114.885 104.393 L 116.620 105.168 L 116.676 105.186 L 118.535 105.579 L 120.465 105.579 L 122.352 105.178 L 124.115 104.393 L 125.676 103.259 L 126.967 101.825 L 127.932 100.154 L 128.528 98.319 L 128.730 96.400 L 128.528 94.481 L 127.932 92.646 L 127.598 92.065 L 126.852 91.093 L 127.225 91.579 L 127.859 92.678 L 128.450 94.498 L 128.650 96.400 L 128.453 98.282 L 128.445 98.323 L 127.859 100.122 L 126.914 101.761 L 126.889 101.794 L 125.637 103.185 L 125.606 103.213 L 124.075 104.324 L 122.347 105.095 L 122.307 105.108 L 120.477 105.497 L 120.436 105.501 L 118.544 105.500 L 116.672 105.102 L 114.925 104.324 L 113.394 103.213 L 113.363 103.185 L 112.097 101.778 L 111.151 100.140 L 111.134 100.102 L 110.550 98.302 L 110.350 96.400 L 110.550 94.498 L 111.141 92.678 L 112.097 91.022 L 112.654 90.402 L 112.684 90.401 L 112.654 90.402 L 110.076 87.824 L 110.001 87.733 L 109.954 87.647 L 109.939 87.611 L 109.912 87.517 L 109.900 87.400 L 109.900 82.000 L 109.906 81.922 L 109.925 81.830 L 109.959 81.742 L 110.006 81.660 L 110.076 81.576 L 115.076 76.576 L 115.151 76.513 L 115.183 76.491 L 115.253 76.454 L 115.289 76.439 L 115.364 76.416 L 115.402 76.409 L 115.500 76.400 L 131.000 76.400 L 131.109 76.410 L 131.170 76.425 L 131.258 76.459 L 131.340 76.506 L 131.424 76.576 L 136.193 81.344 L 136.190 81.355 L 136.193 81.344 L 136.354 81.310 L 136.395 81.305 L 136.625 81.307 L 136.851 81.353 L 136.890 81.366 L 137.100 81.461 L 137.303 81.608 L 137.458 81.778 L 137.482 81.812 L 137.596 82.012 L 137.668 82.230 L 137.677 82.271 L 137.700 82.500 L 137.674 82.749 L 137.656 82.808 L 137.647 82.811 L 137.656 82.808 L 142.317 87.470 L 142.379 87.547 L 142.426 87.633 L 142.441 87.669 L 142.468 87.763 L 142.480 87.880 L 142.480 89.671 L 142.431 89.791 L 142.480 89.671 L 155.576 76.576 L 155.651 76.513 L 155.683 76.491 L 155.753 76.454 L 155.789 76.439 L 155.864 76.416 L 155.902 76.409 L 156.000 76.400 L 162.500 76.400 L 162.578 76.406 L 162.670 76.425 L 162.758 76.459 L 162.840 76.506 L 162.924 76.576 L 164.748 78.400 L 164.746 78.406 L 164.748 78.400 L 165.000 78.400 L 165.117 78.412 L 165.211 78.439 L 165.247 78.454 L 165.316 78.491 L 165.349 78.513 L 165.410 78.563 L 165.437 78.590 L 165.487 78.651 L 165.509 78.683 L 165.554 78.770 L 165.588 78.883 L 165.599 78.980 L 165.600 105.000 L 165.591 105.098 L 165.584 105.136 L 165.561 105.211 L 165.546 105.247 L 165.509 105.316 L 165.487 105.349 L 165.424 105.424 L 155.924 114.924 L 155.865 114.976 L 155.786 115.027 L 155.670 115.075 L 155.573 115.095 L 155.474 115.100 L 155.347 115.088 L 155.253 115.061 L 155.217 115.046 L 155.148 115.009 L 155.115 114.987 L 155.055 114.937 L 151.040 110.924 L 151.043 110.913 L 151.040 110.924 L 150.858 110.961 L 150.628 110.962 L 150.586 110.958 L 150.382 110.914 L 150.342 110.902 L 150.132 110.807 L 149.929 110.660 L 149.761 110.473 L 149.700 110.368 L 149.706 110.357 L 149.700 110.368 L 147.728 110.368 L 147.611 110.356 L 147.498 110.322 L 147.411 110.277 L 147.379 110.255 L 147.303 110.192 L 144.811 107.700 L 144.814 107.694 L 144.811 107.700 L 143.460 107.700 L 143.421 107.696 L 143.383 107.685 L 143.349 107.666 L 143.319 107.641 L 143.294 107.611 L 143.275 107.577 L 143.264 107.539 L 143.260 107.500 L 143.260 105.500 L 143.264 105.461 L 143.275 105.423 L 143.294 105.389 L 143.319 105.359 L 143.349 105.334 L 143.383 105.315 L 143.421 105.304 L 143.460 105.300 L 145.460 105.300 L 145.499 105.304 L 145.537 105.315 L 145.571 105.334 L 145.601 105.359 L 145.626 105.389 L 145.645 105.423 L 145.656 105.461 L 145.660 105.500 L 145.660 106.851 L 145.654 106.854 L 145.660 106.851 L 147.976 109.168 L 147.974 109.174 L 147.976 109.168 L 149.700 109.168 L 149.706 109.178 L 149.700 109.168 L 149.761 109.063 L 149.914 108.891 L 149.946 108.863 L 150.115 108.740 L 150.151 108.719 L 150.361 108.626 L 150.607 108.574 L 150.858 108.574 L 151.083 108.621 L 151.123 108.634 L 151.314 108.719 L 151.350 108.740 L 151.535 108.876 L 151.690 109.046 L 151.714 109.080 L 151.828 109.280 L 151.906 109.518 L 151.931 109.747 L 151.931 109.789 L 151.906 110.017 L 151.888 110.075 L 151.876 110.078 L 151.888 110.075 L 155.482 113.669 L 155.482 113.702 L 155.482 113.669 L 164.400 104.751 L 164.406 104.754 L 164.400 104.751 L 164.400 79.591 L 164.415 79.580 L 164.400 79.591 L 164.391 79.590 L 164.330 79.575 L 164.242 79.541 L 164.160 79.494 L 164.087 79.435 L 162.251 77.600 L 162.254 77.594 L 162.251 77.600 L 156.249 77.600 L 156.246 77.594 L 156.249 77.600 L 143.080 90.768 L 143.074 90.766 L 143.080 90.768 L 143.080 92.107 L 143.069 92.214 L 143.043 92.296 L 143.026 92.335 L 142.982 92.409 L 142.910 92.488 L 142.824 92.551 L 142.745 92.587 L 142.706 92.600 L 142.611 92.618 L 141.160 92.618 L 141.118 92.614 L 141.034 92.595 L 140.955 92.561 L 140.919 92.540 L 140.850 92.488 L 140.791 92.425 L 140.766 92.391 L 140.724 92.316 L 140.697 92.234 L 140.688 92.193 L 140.680 92.107 L 140.680 90.732 L 140.688 90.647 L 140.697 90.606 L 140.724 90.524 L 140.778 90.431 L 140.850 90.352 L 140.936 90.289 L 141.034 90.245 L 141.118 90.226 L 141.182 90.220 L 141.280 90.220 L 141.301 90.239 L 141.280 90.220 L 141.280 88.129 L 141.286 88.126 L 141.280 88.129 L 136.807 83.656 L 136.810 83.645 L 136.807 83.656 L 136.646 83.690 L 136.605 83.695 L 136.375 83.693 L 136.149 83.647 L 136.110 83.634 L 135.900 83.539 L 135.697 83.392 L 135.542 83.222 L 135.518 83.188 L 135.404 82.988 L 135.332 82.770 L 135.323 82.729 L 135.300 82.500 L 135.326 82.251 L 135.344 82.192 L 135.353 82.189 L 135.344 82.192 L 130.751 77.600 L 130.754 77.594 L 130.751 77.600 L 115.749 77.600 L 115.746 77.594 L 115.749 77.600 L 111.100 82.249 L 111.094 82.246 L 111.100 82.249 L 111.100 87.151 L 111.094 87.154 L 111.100 87.151 L 113.476 89.527 L 113.474 89.552 L 113.476 89.527 L 114.925 88.476 L 116.672 87.698 L 118.544 87.300 L 120.436 87.299 L 120.477 87.303 L 122.327 87.698 L 124.056 88.466 L 124.093 88.487 L 124.241 88.595 L 125.016 89.257 L 125.429 89.557 L 122.342 86.470 L 116.450 86.470 L 116.404 86.461 L 116.383 86.450 L 116.350 86.417 L 116.339 86.396 L 116.330 86.350 L 116.330 80.650 L 116.339 80.604 L 116.365 80.565 L 116.404 80.539 L 116.450 80.530 L 122.550 80.530 L 122.596 80.539 L 122.617 80.550 L 122.650 80.583 L 122.661 80.604 L 122.670 80.650 L 122.670 85.327 L 132.408 95.065 L 132.465 95.134 L 132.524 95.245 L 132.550 95.331 L 132.560 95.433 L 132.560 98.520 L 140.894 98.520 L 140.974 98.382 L 141.122 98.217 L 141.320 98.070 L 141.546 97.972 L 141.763 97.926 L 141.985 97.925 L 142.226 97.975 L 142.451 98.077 L 142.638 98.217 L 142.786 98.382 L 142.866 98.520 L 144.040 98.520 L 144.131 98.528 L 144.210 98.549 L 144.268 98.573 L 144.338 98.614 L 144.408 98.672 L 156.000 110.265 L 161.980 104.285 L 161.980 80.900 L 159.986 80.900 L 159.906 81.038 L 159.758 81.203 L 159.571 81.343 L 159.520 81.368 L 159.520 81.920 L 159.510 82.021 L 159.484 82.108 L 159.438 82.199 L 159.368 82.288 L 150.565 91.091 L 150.596 91.187 L 150.620 91.420 L 150.592 91.665 L 150.523 91.876 L 150.413 92.068 L 150.258 92.243 L 150.240 92.260 L 150.060 92.390 L 149.858 92.481 L 149.617 92.534 L 149.371 92.532 L 149.154 92.485 L 148.940 92.390 L 148.751 92.252 L 148.602 92.088 L 148.477 91.876 L 148.403 91.640 L 148.380 91.420 L 148.404 91.187 L 148.477 90.964 L 148.594 90.762 L 148.751 90.588 L 148.940 90.450 L 149.154 90.355 L 149.383 90.306 L 149.617 90.306 L 149.833 90.351 L 158.480 81.705 L 158.480 81.368 L 158.429 81.343 L 158.251 81.212 L 158.087 81.028 L 157.972 80.824 L 157.904 80.613 L 157.881 80.393 L 157.904 80.147 L 157.977 79.924 L 158.094 79.722 L 158.260 79.540 L 158.440 79.410 L 158.654 79.315 L 158.883 79.266 L 159.129 79.268 L 159.346 79.315 L 159.571 79.417 L 159.758 79.557 L 159.906 79.722 L 159.986 79.860 L 161.905 79.860 L 162.132 79.632 L 162.196 79.579 L 162.277 79.531 L 162.365 79.498 L 162.479 79.481 L 162.573 79.486 L 162.665 79.507 L 162.751 79.545 L 162.812 79.584 L 162.882 79.647 L 162.950 79.741 L 162.982 79.806 L 163.009 79.896 L 163.020 80.000 L 163.020 104.500 L 163.010 104.601 L 162.980 104.699 L 162.938 104.779 L 162.868 104.868 L 156.368 111.368 L 156.279 111.438 L 156.199 111.480 L 156.101 111.510 L 156.012 111.519 L 155.910 111.512 L 155.790 111.475 L 155.702 111.425 L 155.632 111.368 L 143.825 99.560 L 142.866 99.560 L 142.786 99.698 L 142.638 99.863 L 142.451 100.003 L 142.226 100.105 L 141.985 100.155 L 141.763 100.154 L 141.546 100.108 L 141.320 100.010 L 141.122 99.863 L 140.974 99.698 L 140.894 99.560 L 132.175 99.560 L 122.955 108.780 L 123.638 108.780 L 123.739 108.790 L 123.837 108.820 L 123.916 108.862 L 123.996 108.924 L 124.076 109.021 L 124.118 109.101 L 124.145 109.187 L 124.157 109.312 L 124.148 109.401 L 124.122 109.488 L 124.063 109.598 L 124.005 109.668 L 123.936 109.725 L 123.825 109.784 L 123.739 109.810 L 123.638 109.820 L 122.670 109.820 L 122.670 112.150 L 122.668 112.173 L 122.650 112.217 L 122.617 112.250 L 122.596 112.261 L 122.550 112.270 L 116.450 112.270 L 116.404 112.261 L 116.383 112.250 L 116.350 112.217 L 116.339 112.196 L 116.330 112.150 L 116.330 106.450 L 116.339 106.404 L 116.365 106.365 L 116.404 106.339 L 116.450 106.330 L 122.573 106.332 L 122.617 106.350 L 122.650 106.383 L 122.661 106.404 L 122.670 106.450 L 122.670 107.595 L 131.520 98.745 L 131.520 95.648 L 126.916 91.044 L 127.289 91.530 L 131.440 95.681 L 131.446 95.679 L 131.440 95.681 L 131.440 98.711 L 131.446 98.714 L 131.440 98.711 L 122.750 107.401 L 122.701 107.520 L 122.750 107.401 L 122.750 106.450 L 122.746 106.411 L 122.735 106.373 L 122.716 106.339 L 122.691 106.309 L 122.661 106.284 L 122.627 106.265 L 122.589 106.254 L 122.550 106.250 L 116.450 106.250 L 116.411 106.254 L 116.373 106.265 L 116.339 106.284 L 116.309 106.309 L 116.284 106.339 L 116.265 106.373 L 116.254 106.411 L 116.250 106.450 L 116.250 112.150 L 116.254 112.189 L 116.265 112.227 L 116.284 112.261 L 116.309 112.291 L 116.339 112.316 L 116.373 112.335 L 116.411 112.346 L 116.450 112.350 L 122.550 112.350 L 122.589 112.346 L 122.627 112.335 L 122.661 112.316 L 122.691 112.291 L 122.716 112.261 L 122.735 112.227 L 122.746 112.189 L 122.750 112.150 L 122.750 109.900 L 122.727 109.877 L 122.750 109.900 L 123.638 109.900 L 123.755 109.888 L 123.849 109.861 L 123.885 109.846 L 123.954 109.809 L 123.987 109.787 L 124.062 109.724 L 124.125 109.649 L 124.146 109.616 L 124.192 109.530 L 124.221 109.436 L 124.229 109.398 L 124.237 109.320 L 124.237 109.280 L 124.229 109.202 L 124.221 109.164 L 124.192 109.070 L 124.146 108.983 L 124.125 108.951 L 124.075 108.890 L 124.047 108.863 L 123.987 108.813 L 123.954 108.791 L 123.867 108.746 L 123.774 108.716 L 123.735 108.709 L 123.638 108.700 L 123.148 108.700 L 123.032 108.747 L 123.148 108.700 L 132.208 99.640 L 132.206 99.634 L 132.208 99.640 L 140.848 99.640 L 140.854 99.629 L 140.848 99.640 L 140.909 99.745 L 141.062 99.917 L 141.093 99.945 L 141.262 100.068 L 141.299 100.089 L 141.509 100.181 L 141.734 100.230 L 141.775 100.234 L 142.005 100.233 L 142.231 100.187 L 142.270 100.174 L 142.480 100.079 L 142.667 99.945 L 142.698 99.917 L 142.851 99.745 L 142.912 99.640 L 142.906 99.629 L 142.912 99.640 L 143.791 99.640 L 143.794 99.634 L 143.791 99.640 L 155.576 111.424 L 155.651 111.487 L 155.683 111.509 L 155.770 111.554 L 155.883 111.588 L 155.980 111.599 L 156.020 111.599 L 156.117 111.588 L 156.230 111.554 L 156.316 111.509 L 156.349 111.487 L 156.424 111.424 L 162.924 104.924 L 162.987 104.849 L 163.009 104.816 L 163.054 104.730 L 163.088 104.617 L 163.100 104.500 L 163.100 80.000 L 163.093 79.910 L 163.086 79.874 L 163.054 79.771 L 163.022 79.706 L 162.960 79.616 L 162.936 79.589 L 162.855 79.517 L 162.794 79.478 L 162.696 79.433 L 162.590 79.407 L 162.554 79.403 L 162.446 79.403 L 162.339 79.423 L 162.238 79.461 L 162.145 79.517 L 162.076 79.576 L 161.871 79.780 L 161.874 79.786 L 161.871 79.780 L 160.032 79.780 L 160.026 79.791 L 160.032 79.780 L 159.971 79.675 L 159.818 79.503 L 159.787 79.475 L 159.618 79.352 L 159.581 79.331 L 159.371 79.239 L 159.146 79.190 L 159.105 79.185 L 158.875 79.187 L 158.629 79.239 L 158.400 79.341 L 158.213 79.475 L 158.182 79.503 L 158.029 79.675 L 157.904 79.892 L 157.826 80.130 L 157.801 80.359 L 157.801 80.401 L 157.823 80.609 L 157.832 80.650 L 157.904 80.868 L 158.018 81.068 L 158.042 81.102 L 158.197 81.272 L 158.382 81.408 L 158.400 81.419 L 158.409 81.415 L 158.400 81.419 L 158.400 81.671 L 158.406 81.674 L 158.400 81.671 L 149.807 90.264 L 149.810 90.275 L 149.807 90.264 L 149.625 90.227 L 149.375 90.227 L 149.129 90.279 L 148.900 90.381 L 148.697 90.528 L 148.529 90.715 L 148.404 90.932 L 148.326 91.171 L 148.300 91.420 L 148.323 91.649 L 148.332 91.690 L 148.404 91.908 L 148.529 92.125 L 148.682 92.297 L 148.713 92.325 L 148.900 92.459 L 149.110 92.554 L 149.149 92.567 L 149.375 92.613 L 149.625 92.613 L 149.851 92.567 L 149.890 92.554 L 150.100 92.459 L 150.287 92.325 L 150.318 92.297 L 150.458 92.142 L 150.482 92.108 L 150.596 91.908 L 150.668 91.690 L 150.677 91.649 L 150.700 91.420 L 150.674 91.171 L 150.656 91.112 L 150.647 91.109 L 150.656 91.112 L 159.424 82.344 L 159.487 82.269 L 159.509 82.236 L 159.546 82.167 L 159.561 82.131 L 159.588 82.037 L 159.600 81.920 L 159.600 81.419 L 159.592 81.415 L 159.600 81.419 L 159.618 81.408 L 159.787 81.285 L 159.818 81.257 L 159.971 81.085 L 160.032 80.980 L 160.026 80.969 L 160.032 80.980 L 161.900 80.980 L 161.923 80.957 L 161.900 80.980 L 161.900 104.251 L 161.906 104.254 L 161.900 104.251 L 156.000 110.151 L 156.000 110.185 L 156.000 110.151 L 144.464 98.616 L 144.405 98.564 L 144.326 98.513 L 144.210 98.465 L 144.118 98.446 L 144.056 98.441 L 142.912 98.440 L 142.906 98.451 L 142.912 98.440 L 142.851 98.335 L 142.698 98.163 L 142.667 98.135 L 142.480 98.001 L 142.270 97.906 L 142.231 97.893 L 142.005 97.847 L 141.775 97.845 L 141.734 97.850 L 141.509 97.899 L 141.299 97.991 L 141.262 98.012 L 141.093 98.135 L 141.062 98.163 L 140.909 98.335 L 140.848 98.440 L 140.854 98.451 L 140.848 98.440 L 135.203 98.440 L 135.094 98.473 L 134.869 98.520 L 135.138 98.461 L 135.349 98.392 L 135.431 98.360 L 140.801 98.360 L 140.807 98.370 L 140.801 98.360 L 140.844 98.288 L 140.982 98.133 L 141.141 98.069 L 141.325 97.978 L 141.617 97.810 L 142.223 97.810 L 142.303 97.833 L 142.520 97.931 L 142.736 98.089 L 142.916 98.288 L 142.959 98.360 L 142.953 98.370 L 142.959 98.360 L 144.062 98.361 L 144.125 98.366 L 144.229 98.387 L 144.271 98.401 L 144.368 98.445 L 144.457 98.503 L 144.521 98.559 L 156.000 110.038 L 156.000 110.071 L 156.000 110.038 L 161.820 104.218 L 161.826 104.221 L 161.820 104.218 L 161.820 81.060 L 161.843 81.037 L 161.820 81.060 L 160.079 81.060 L 160.073 81.049 L 160.079 81.060 L 160.036 81.132 L 159.877 81.310 L 159.834 81.350 L 159.680 81.461 L 159.672 81.457 L 159.680 81.461 L 159.680 81.920 L 159.667 82.053 L 159.637 82.154 L 159.616 82.205 L 159.565 82.298 L 159.481 82.401 L 150.747 91.135 L 150.739 91.132 L 150.747 91.135 L 150.757 91.183 L 150.780 91.420 L 150.757 91.657 L 150.744 91.714 L 150.669 91.941 L 150.551 92.148 L 150.517 92.195 L 150.377 92.350 L 150.334 92.390 L 150.140 92.528 L 149.923 92.627 L 149.843 92.650 L 149.157 92.650 L 149.077 92.627 L 148.860 92.528 L 148.666 92.390 L 148.623 92.350 L 148.464 92.172 L 148.331 91.941 L 148.248 91.686 L 148.222 91.449 L 148.222 91.391 L 148.248 91.154 L 148.331 90.899 L 148.464 90.668 L 148.644 90.469 L 148.860 90.311 L 149.104 90.203 L 149.366 90.147 L 149.634 90.147 L 149.781 90.177 L 149.785 90.187 L 149.781 90.177 L 158.320 81.638 L 158.326 81.641 L 158.320 81.638 L 158.320 81.461 L 158.329 81.457 L 158.320 81.461 L 158.144 81.331 L 157.983 81.155 L 157.948 81.108 L 157.831 80.901 L 157.748 80.646 L 157.722 80.409 L 157.722 80.351 L 157.748 80.114 L 157.831 79.859 L 157.964 79.628 L 158.123 79.450 L 158.166 79.410 L 158.360 79.272 L 158.604 79.163 L 158.866 79.107 L 159.105 79.106 L 159.163 79.112 L 159.396 79.163 L 159.640 79.272 L 159.834 79.410 L 159.877 79.450 L 160.036 79.628 L 160.079 79.700 L 160.073 79.710 L 160.079 79.700 L 161.838 79.700 L 161.841 79.706 L 161.838 79.700 L 162.019 79.519 L 162.094 79.456 L 162.135 79.427 L 162.198 79.391 L 162.244 79.371 L 162.313 79.347 L 162.362 79.335 L 162.434 79.324 L 162.484 79.321 L 162.557 79.323 L 162.607 79.329 L 162.678 79.344 L 162.726 79.359 L 162.793 79.387 L 162.838 79.411 L 162.899 79.450 L 162.939 79.481 L 162.991 79.531 L 163.025 79.569 L 163.068 79.627 L 163.094 79.670 L 163.126 79.736 L 163.144 79.783 L 163.163 79.853 L 163.172 79.903 L 163.180 80.000 L 163.180 104.500 L 163.167 104.633 L 163.137 104.734 L 163.116 104.785 L 163.079 104.854 L 163.049 104.900 L 162.981 104.981 L 156.481 111.481 L 156.400 111.549 L 156.354 111.579 L 156.260 111.628 L 156.133 111.667 L 156.027 111.679 L 155.973 111.679 L 155.867 111.667 L 155.740 111.628 L 155.646 111.579 L 155.600 111.549 L 155.519 111.481 L 143.758 99.720 L 143.761 99.714 L 143.758 99.720 L 142.959 99.720 L 142.953 99.710 L 142.959 99.720 L 142.916 99.792 L 142.757 99.970 L 142.714 100.010 L 142.520 100.148 L 142.276 100.257 L 142.043 100.308 L 141.985 100.314 L 141.746 100.313 L 141.513 100.265 L 141.457 100.247 L 141.240 100.148 L 141.046 100.010 L 141.003 99.970 L 140.844 99.792 L 140.801 99.720 L 140.807 99.710 L 140.801 99.720 L 132.242 99.720 L 132.239 99.714 L 132.242 99.720 L 123.342 108.620 L 123.228 108.665 L 123.342 108.620 L 123.638 108.620 L 123.743 108.629 L 123.797 108.640 L 123.898 108.672 L 123.992 108.720 L 124.037 108.751 L 124.118 108.819 L 124.187 108.900 L 124.217 108.946 L 124.266 109.040 L 124.298 109.141 L 124.308 109.195 L 124.316 109.273 L 124.316 109.327 L 124.308 109.405 L 124.298 109.459 L 124.266 109.560 L 124.217 109.654 L 124.187 109.700 L 124.118 109.781 L 124.037 109.849 L 123.992 109.879 L 123.898 109.928 L 123.770 109.967 L 123.638 109.980 L 122.830 109.980 L 122.807 109.957 L 122.830 109.980 L 122.830 112.150 L 122.825 112.205 L 122.809 112.257 L 122.783 112.306 L 122.748 112.348 L 122.706 112.383 L 122.657 112.409 L 122.605 112.425 L 122.550 112.430 L 116.450 112.430 L 116.395 112.425 L 116.343 112.409 L 116.294 112.383 L 116.252 112.348 L 116.217 112.306 L 116.191 112.257 L 116.175 112.205 L 116.170 112.150 L 116.330 112.150 L 116.170 112.150 L 116.170 106.450 L 116.175 106.395 L 116.191 106.343 L 116.217 106.294 L 116.252 106.252 L 116.294 106.217 L 116.343 106.191 L 116.395 106.175 L 116.450 106.170 L 122.550 106.170 L 122.605 106.175 L 122.657 106.191 L 122.706 106.217 L 122.748 106.252 L 122.783 106.294 L 122.809 106.343 L 122.825 106.395 L 122.830 106.450 L 122.830 107.208 L 122.782 107.326 L 122.830 107.208 L 131.360 98.678 L 131.366 98.681 L 131.360 98.678 L 131.360 95.714 L 131.366 95.712 L 131.360 95.714 L 127.662 92.016 L 126.916 91.044 L 125.918 90.046 L 125.552 89.662 L 125.429 89.557 L 124.035 88.545 L 122.303 87.774 L 120.448 87.380 L 118.564 87.379 L 118.540 87.382 L 116.709 87.771 L 116.685 87.778 L 114.965 88.545 L 113.468 89.632 L 111.020 87.185 L 111.020 82.215 L 115.715 77.520 L 130.785 77.520 L 135.435 82.171 L 135.404 82.267 L 135.380 82.500 L 135.408 82.745 L 135.477 82.956 L 135.587 83.148 L 135.751 83.332 L 135.940 83.470 L 136.166 83.568 L 136.395 83.615 L 136.617 83.614 L 136.833 83.569 L 141.360 88.095 L 141.360 90.300 L 141.192 90.300 L 141.135 90.304 L 141.059 90.321 L 140.976 90.358 L 140.903 90.411 L 140.843 90.478 L 140.797 90.557 L 140.773 90.630 L 140.760 90.732 L 140.760 92.107 L 140.773 92.210 L 140.797 92.283 L 140.836 92.351 L 140.903 92.429 L 140.987 92.488 L 141.059 92.519 L 141.135 92.536 L 141.160 92.538 L 142.606 92.538 L 142.713 92.514 L 142.784 92.482 L 142.857 92.429 L 142.924 92.351 L 142.963 92.283 L 142.991 92.197 L 143.000 92.107 L 143.000 90.735 L 156.215 77.520 L 162.285 77.520 L 164.139 79.374 L 164.202 79.426 L 164.272 79.467 L 164.348 79.497 L 164.409 79.512 L 164.480 79.519 L 164.480 104.785 L 155.482 113.782 L 151.797 110.097 L 151.828 110.001 L 151.852 109.768 L 151.828 109.535 L 151.760 109.324 L 151.645 109.120 L 151.630 109.100 L 151.482 108.935 L 151.303 108.805 L 151.281 108.792 L 151.066 108.699 L 150.849 108.654 L 150.615 108.654 L 150.386 108.703 L 150.162 108.805 L 149.974 108.944 L 149.826 109.110 L 149.747 109.248 L 147.943 109.248 L 145.580 106.885 L 145.580 105.500 L 145.571 105.454 L 145.545 105.415 L 145.527 105.400 L 145.483 105.382 L 145.460 105.380 L 143.460 105.380 L 143.414 105.389 L 143.375 105.415 L 143.349 105.454 L 143.342 105.477 L 143.340 107.500 L 143.349 107.546 L 143.375 107.585 L 143.393 107.600 L 143.437 107.618 L 143.460 107.620 L 144.845 107.620 L 147.360 110.135 L 147.429 110.193 L 147.529 110.248 L 147.626 110.278 L 147.728 110.288 L 149.747 110.288 L 149.826 110.426 L 149.983 110.600 L 150.172 110.738 L 150.374 110.828 L 150.603 110.880 L 150.628 110.882 L 150.849 110.882 L 151.065 110.836 L 155.097 114.868 L 155.186 114.938 L 155.277 114.984 L 155.375 115.012 L 155.470 115.020 L 155.569 115.015 L 155.652 114.997 L 155.727 114.967 L 155.798 114.926 L 155.868 114.868 L 165.368 105.368 L 165.438 105.279 L 165.484 105.188 L 165.507 105.113 L 165.520 105.000 L 165.520 79.000 L 165.510 78.899 L 165.480 78.801 L 165.425 78.702 L 165.359 78.624 L 165.289 78.568 L 165.210 78.525 L 165.101 78.490 L 165.000 78.480 L 164.715 78.480 L 162.868 76.632 L 162.813 76.585 L 162.744 76.541 L 162.669 76.509 L 162.591 76.488 L 162.500 76.480 L 156.000 76.480 L 155.887 76.493 L 155.790 76.525 L 155.702 76.575 L 155.632 76.632 L 142.400 89.865 L 142.399 87.868 L 142.390 87.779 L 142.364 87.692 L 142.312 87.591 L 142.256 87.521 L 137.565 82.829 L 137.596 82.733 L 137.620 82.500 L 137.592 82.255 L 137.523 82.044 L 137.413 81.852 L 137.249 81.668 L 137.060 81.530 L 136.834 81.432 L 136.605 81.385 L 136.383 81.386 L 136.167 81.431 L 131.368 76.632 L 131.298 76.574 L 131.227 76.533 L 131.170 76.509 L 131.091 76.488 L 131.000 76.480 L 115.500 76.480 L 115.387 76.493 L 115.290 76.525 L 115.202 76.575 L 115.132 76.632 L 110.132 81.632 L 110.074 81.702 L 110.033 81.772 L 110.009 81.830 L 109.988 81.909 L 109.980 82.000 L 109.980 87.400 L 109.990 87.501 L 110.016 87.588 L 110.068 87.689 L 110.132 87.768 L 112.764 90.399 L 112.162 91.069 L 111.220 92.700 L 111.210 92.723 L 110.631 94.502 L 110.626 94.527 L 110.430 96.400 L 110.628 98.286 L 111.214 100.089 L 112.162 101.731 L 113.431 103.140 L 114.965 104.255 L 116.697 105.026 L 118.540 105.418 L 118.564 105.421 L 120.448 105.420 L 122.291 105.029 L 122.314 105.022 L 124.035 104.255 L 125.569 103.140 L 126.830 101.741 L 126.845 101.721 L 127.780 100.100 L 127.790 100.077 L 128.372 98.286 L 128.569 96.413 L 128.569 96.387 L 128.374 94.527 L 128.369 94.502 L 127.786 92.711 L 126.845 91.079 L 126.830 91.059 L 125.918 90.046 L 125.568 89.677 L 125.429 89.557 L 125.068 89.196 L 124.293 88.534 L 122.309 86.550 L 122.311 86.544 L 122.309 86.550 L 116.450 86.550 L 116.411 86.546 L 116.373 86.535 L 116.339 86.516 L 116.309 86.491 L 116.284 86.461 L 116.265 86.427 L 116.254 86.389 L 116.250 86.350 L 116.250 80.650 L 116.254 80.611 L 116.265 80.573 L 116.284 80.539 L 116.309 80.509 L 116.339 80.484 L 116.373 80.465 L 116.411 80.454 L 116.450 80.450 L 122.550 80.450 L 122.589 80.454 L 122.627 80.465 L 122.661 80.484 L 122.691 80.509 L 122.716 80.539 L 122.735 80.573 L 122.746 80.611 L 122.750 80.650 L 122.750 85.294 L 122.744 85.297 L 122.750 85.294 L 132.464 95.009 L 132.527 95.084 L 132.549 95.116 L 132.586 95.185 L 132.601 95.222 L 132.628 95.316 L 132.640 95.433 L 132.640 98.440 L 132.617 98.463 L 132.640 98.440 L 133.797 98.440 L 133.906 98.473 L 134.131 98.520 L 133.862 98.461 L 133.651 98.392 L 133.569 98.360 L 132.720 98.360 L 132.697 98.383 L 132.720 98.360 L 132.720 95.433 L 132.707 95.300 L 132.677 95.198 L 132.656 95.148 L 132.605 95.055 L 132.539 94.972 L 122.830 85.261 L 122.824 85.264 L 122.830 85.261 L 122.830 80.650 L 122.825 80.595 L 122.809 80.543 L 122.783 80.494 L 122.748 80.452 L 122.706 80.417 L 122.657 80.391 L 122.605 80.375 L 122.550 80.370 L 116.450 80.370 L 116.395 80.375 L 116.343 80.391 L 116.294 80.417 L 116.252 80.452 L 116.217 80.494 L 116.191 80.543 L 116.175 80.595 L 116.170 80.650 L 116.170 86.350 L 116.175 86.405 L 116.191 86.457 L 116.217 86.506 L 116.252 86.548 L 116.294 86.583 L 116.343 86.609 L 116.395 86.625 L 116.450 86.630 L 122.275 86.630 L 122.278 86.624 L 122.275 86.630 L 123.843 88.198 L 124.106 88.378 L 124.293 88.534" fill="none" stroke="#000000" stroke-width="0.2"/>
  <path d="M 132.720 86.830 L 132.748 87.096 L 132.831 87.351 L 132.964 87.582 L 133.144 87.781 L 133.360 87.939 L 133.577 88.037 L 133.633 88.055 L 133.837 88.098 L 133.895 88.105 L 134.134 88.103 L 134.281 88.073 L 134.285 88.063 L 134.281 88.073 L 140.649 94.441 L 140.723 94.503 L 140.844 94.712 L 141.003 94.890 L 141.046 94.930 L 141.240 95.068 L 141.457 95.167 L 141.537 95.190 L 142.223 95.190 L 142.247 95.185 L 142.303 95.167 L 142.520 95.068 L 142.714 94.930 L 142.757 94.890 L 142.916 94.712 L 142.959 94.640 L 142.953 94.630 L 142.959 94.640 L 144.772 94.640 L 144.872 94.667 L 144.915 94.674 L 145.000 94.680 L 145.320 94.680 L 145.343 94.657 L 145.320 94.680 L 145.320 96.500 L 145.329 96.605 L 145.340 96.659 L 145.372 96.760 L 145.420 96.854 L 145.451 96.900 L 145.519 96.981 L 145.600 97.049 L 145.646 97.079 L 145.715 97.116 L 145.766 97.137 L 145.867 97.167 L 146.000 97.180 L 148.421 97.180 L 148.427 97.170 L 148.421 97.180 L 148.464 97.252 L 148.623 97.430 L 148.666 97.470 L 148.860 97.608 L 149.077 97.707 L 149.157 97.730 L 149.843 97.730 L 149.923 97.707 L 150.140 97.608 L 150.356 97.451 L 150.536 97.252 L 150.579 97.180 L 150.573 97.170 L 150.579 97.180 L 153.908 97.180 L 153.911 97.174 L 153.908 97.180 L 158.253 101.525 L 158.261 101.522 L 158.253 101.525 L 158.243 101.573 L 158.220 101.810 L 158.243 102.047 L 158.256 102.104 L 158.331 102.331 L 158.448 102.538 L 158.483 102.585 L 158.623 102.740 L 158.666 102.780 L 158.860 102.918 L 159.077 103.017 L 159.133 103.035 L 159.337 103.078 L 159.395 103.084 L 159.634 103.083 L 159.867 103.035 L 159.923 103.017 L 160.140 102.918 L 160.356 102.761 L 160.535 102.562 L 160.656 102.357 L 160.680 102.303 L 160.744 102.104 L 160.757 102.047 L 160.780 101.810 L 160.752 101.544 L 160.680 101.317 L 160.656 101.263 L 160.535 101.058 L 160.377 100.879 L 160.334 100.840 L 160.140 100.701 L 159.923 100.603 L 159.867 100.585 L 159.663 100.542 L 159.605 100.535 L 159.366 100.537 L 159.218 100.567 L 159.215 100.577 L 159.218 100.567 L 154.671 96.019 L 154.607 95.963 L 154.518 95.905 L 154.421 95.861 L 154.379 95.847 L 154.275 95.826 L 154.190 95.820 L 150.579 95.820 L 150.573 95.830 L 150.579 95.820 L 150.536 95.748 L 150.377 95.570 L 150.334 95.530 L 150.140 95.391 L 149.923 95.293 L 149.843 95.270 L 149.157 95.270 L 149.077 95.293 L 148.860 95.391 L 148.644 95.549 L 148.464 95.748 L 148.421 95.820 L 148.427 95.830 L 148.421 95.820 L 146.680 95.820 L 146.657 95.843 L 146.680 95.820 L 146.680 94.000 L 146.671 93.894 L 146.660 93.841 L 146.628 93.740 L 146.579 93.646 L 146.549 93.600 L 146.481 93.519 L 146.378 93.435 L 146.285 93.384 L 146.234 93.362 L 146.133 93.333 L 146.000 93.320 L 145.188 93.320 L 145.088 93.293 L 145.045 93.286 L 144.960 93.280 L 142.959 93.280 L 142.953 93.290 L 142.959 93.280 L 142.916 93.208 L 142.757 93.030 L 142.714 92.990 L 142.520 92.852 L 142.358 92.778 L 142.246 92.757 L 142.039 92.735 L 141.983 92.732 L 141.721 92.735 L 141.514 92.757 L 141.404 92.777 L 141.266 92.838 L 141.215 92.867 L 141.090 92.959 L 141.088 92.983 L 141.090 92.959 L 135.247 87.115 L 135.238 87.118 L 135.247 87.115 L 135.257 87.067 L 135.280 86.830 L 135.257 86.593 L 135.244 86.536 L 135.169 86.309 L 135.051 86.102 L 135.017 86.055 L 134.856 85.879 L 134.640 85.722 L 134.423 85.623 L 134.367 85.605 L 134.163 85.562 L 134.105 85.556 L 133.866 85.557 L 133.604 85.613 L 133.360 85.722 L 133.144 85.879 L 132.964 86.078 L 132.831 86.309 L 132.748 86.564 L 132.722 86.801 L 132.720 86.830 L 132.800 86.830 L 132.826 87.080 L 132.896 87.299 L 132.913 87.337 L 133.018 87.518 L 133.042 87.552 L 133.197 87.722 L 133.382 87.858 L 133.419 87.879 L 133.629 87.971 L 133.854 88.020 L 133.895 88.025 L 134.125 88.024 L 134.307 87.986 L 134.310 87.976 L 134.307 87.986 L 140.706 94.384 L 140.785 94.450 L 140.909 94.665 L 141.062 94.837 L 141.093 94.865 L 141.280 94.999 L 141.509 95.101 L 141.755 95.153 L 142.005 95.153 L 142.251 95.101 L 142.480 94.999 L 142.683 94.852 L 142.851 94.665 L 142.912 94.560 L 142.906 94.549 L 142.912 94.560 L 144.787 94.560 L 144.830 94.575 L 144.891 94.590 L 145.000 94.600 L 145.400 94.600 L 145.423 94.577 L 145.400 94.600 L 145.401 96.520 L 145.412 96.617 L 145.439 96.711 L 145.454 96.747 L 145.491 96.816 L 145.513 96.849 L 145.576 96.924 L 145.651 96.987 L 145.683 97.009 L 145.753 97.046 L 145.789 97.061 L 145.883 97.088 L 146.000 97.100 L 148.468 97.100 L 148.474 97.089 L 148.468 97.100 L 148.529 97.205 L 148.682 97.377 L 148.713 97.405 L 148.882 97.528 L 148.919 97.549 L 149.129 97.641 L 149.354 97.690 L 149.395 97.695 L 149.605 97.695 L 149.646 97.690 L 149.871 97.641 L 150.100 97.539 L 150.287 97.405 L 150.318 97.377 L 150.471 97.205 L 150.532 97.100 L 150.526 97.089 L 150.532 97.100 L 153.941 97.100 L 153.944 97.094 L 153.941 97.100 L 158.344 101.502 L 158.353 101.499 L 158.344 101.502 L 158.326 101.561 L 158.300 101.810 L 158.323 102.039 L 158.332 102.080 L 158.404 102.298 L 158.518 102.498 L 158.542 102.532 L 158.682 102.687 L 158.713 102.715 L 158.900 102.849 L 159.110 102.944 L 159.149 102.957 L 159.354 103.000 L 159.395 103.004 L 159.625 103.003 L 159.851 102.957 L 159.890 102.944 L 160.100 102.849 L 160.303 102.702 L 160.471 102.515 L 160.587 102.317 L 160.604 102.279 L 160.674 102.059 L 160.699 101.831 L 160.699 101.789 L 160.674 101.561 L 160.604 101.341 L 160.587 101.303 L 160.471 101.105 L 160.318 100.933 L 160.287 100.905 L 160.100 100.771 L 159.890 100.676 L 159.851 100.663 L 159.625 100.617 L 159.395 100.615 L 159.354 100.620 L 159.193 100.654 L 159.190 100.665 L 159.193 100.654 L 154.614 96.076 L 154.555 96.024 L 154.476 95.973 L 154.360 95.925 L 154.268 95.906 L 154.190 95.900 L 150.532 95.900 L 150.526 95.911 L 150.532 95.900 L 150.471 95.795 L 150.318 95.623 L 150.287 95.595 L 150.118 95.472 L 150.081 95.451 L 149.871 95.359 L 149.646 95.310 L 149.605 95.305 L 149.375 95.307 L 149.149 95.353 L 149.110 95.366 L 148.900 95.461 L 148.713 95.595 L 148.682 95.623 L 148.529 95.795 L 148.468 95.900 L 148.474 95.911 L 148.468 95.900 L 146.600 95.900 L 146.577 95.923 L 146.600 95.900 L 146.599 93.980 L 146.588 93.883 L 146.561 93.789 L 146.546 93.753 L 146.509 93.683 L 146.487 93.651 L 146.424 93.576 L 146.349 93.513 L 146.316 93.491 L 146.247 93.454 L 146.211 93.439 L 146.117 93.412 L 146.000 93.400 L 145.173 93.400 L 145.130 93.385 L 145.069 93.370 L 144.960 93.360 L 142.912 93.360 L 142.906 93.371 L 142.912 93.360 L 142.851 93.255 L 142.698 93.083 L 142.667 93.055 L 142.498 92.932 L 142.461 92.911 L 142.251 92.819 L 142.005 92.767 L 141.755 92.767 L 141.509 92.819 L 141.280 92.921 L 141.082 93.064 L 141.080 93.089 L 141.082 93.064 L 135.156 87.138 L 135.147 87.141 L 135.156 87.138 L 135.174 87.080 L 135.200 86.830 L 135.177 86.601 L 135.168 86.560 L 135.096 86.342 L 134.982 86.142 L 134.958 86.109 L 134.803 85.938 L 134.600 85.791 L 134.390 85.696 L 134.351 85.683 L 134.146 85.640 L 134.105 85.636 L 133.875 85.637 L 133.629 85.689 L 133.400 85.791 L 133.197 85.938 L 133.029 86.125 L 132.904 86.342 L 132.826 86.581 L 132.800 86.830 L 132.880 86.830 L 132.908 86.585 L 132.977 86.375 L 133.094 86.172 L 133.260 85.990 L 133.440 85.860 L 133.642 85.769 L 133.883 85.716 L 134.129 85.718 L 134.346 85.765 L 134.549 85.854 L 134.749 85.998 L 134.913 86.182 L 135.023 86.375 L 135.092 86.585 L 135.120 86.830 L 135.096 87.063 L 135.065 87.160 L 141.084 93.179 L 141.140 93.120 L 141.320 92.990 L 141.534 92.895 L 141.763 92.846 L 141.997 92.846 L 142.226 92.895 L 142.451 92.997 L 142.638 93.137 L 142.786 93.302 L 142.866 93.440 L 144.960 93.440 L 145.051 93.448 L 145.112 93.463 L 145.157 93.480 L 146.000 93.480 L 146.101 93.490 L 146.188 93.516 L 146.298 93.575 L 146.368 93.632 L 146.438 93.721 L 146.484 93.812 L 146.510 93.899 L 146.519 93.988 L 146.520 95.980 L 148.514 95.980 L 148.594 95.842 L 148.742 95.677 L 148.940 95.530 L 149.166 95.432 L 149.383 95.386 L 149.605 95.385 L 149.846 95.435 L 150.071 95.537 L 150.258 95.677 L 150.406 95.842 L 150.486 95.980 L 154.190 95.980 L 154.262 95.985 L 154.342 96.003 L 154.434 96.041 L 154.503 96.085 L 154.558 96.132 L 159.167 100.741 L 159.383 100.696 L 159.605 100.695 L 159.834 100.742 L 160.060 100.840 L 160.258 100.987 L 160.406 101.152 L 160.517 101.343 L 160.596 101.577 L 160.619 101.823 L 160.596 102.043 L 160.528 102.254 L 160.406 102.468 L 160.249 102.642 L 160.060 102.780 L 159.834 102.878 L 159.605 102.924 L 159.383 102.924 L 159.166 102.878 L 158.940 102.780 L 158.760 102.650 L 158.602 102.478 L 158.587 102.458 L 158.477 102.266 L 158.408 102.055 L 158.380 101.810 L 158.404 101.577 L 158.435 101.481 L 153.975 97.020 L 150.486 97.020 L 150.406 97.158 L 150.258 97.323 L 150.060 97.470 L 149.846 97.565 L 149.629 97.612 L 149.605 97.615 L 149.371 97.612 L 149.154 97.565 L 148.929 97.463 L 148.742 97.323 L 148.594 97.158 L 148.514 97.020 L 146.000 97.020 L 145.899 97.010 L 145.812 96.984 L 145.702 96.925 L 145.632 96.868 L 145.562 96.779 L 145.516 96.688 L 145.490 96.601 L 145.481 96.512 L 145.480 94.520 L 144.991 94.520 L 144.909 94.512 L 144.848 94.497 L 144.803 94.480 L 142.866 94.480 L 142.786 94.618 L 142.629 94.792 L 142.440 94.930 L 142.226 95.025 L 141.997 95.074 L 141.763 95.074 L 141.534 95.025 L 141.320 94.930 L 141.131 94.792 L 140.982 94.628 L 140.863 94.427 L 140.850 94.397 L 140.817 94.375 L 140.762 94.328 L 134.333 87.899 L 134.117 87.944 L 133.895 87.945 L 133.666 87.899 L 133.440 87.800 L 133.251 87.662 L 133.094 87.488 L 132.977 87.286 L 132.904 87.063 L 132.880 86.830" fill="none" stroke="#000000" stroke-width="0.2"/>
  <path d="M 135.178 98.364 L 135.303 98.272 L 135.458 98.102 L 135.483 98.067 L 135.532 97.980 L 135.526 97.969 L 135.532 97.980 L 141.000 97.980 L 141.078 97.974 L 141.170 97.955 L 141.258 97.921 L 141.365 97.856 L 141.424 97.804 L 141.573 97.656 L 141.570 97.646 L 141.573 97.656 L 141.734 97.690 L 141.775 97.695 L 142.005 97.693 L 142.231 97.647 L 142.270 97.634 L 142.480 97.539 L 142.683 97.392 L 142.838 97.222 L 142.862 97.188 L 142.976 96.988 L 143.048 96.770 L 143.057 96.729 L 143.080 96.500 L 143.057 96.271 L 143.048 96.230 L 142.976 96.012 L 142.862 95.812 L 142.838 95.778 L 142.698 95.623 L 142.667 95.595 L 142.480 95.461 L 142.251 95.359 L 142.005 95.307 L 141.775 95.305 L 141.734 95.310 L 141.509 95.359 L 141.280 95.461 L 141.077 95.608 L 140.909 95.795 L 140.784 96.012 L 140.706 96.251 L 140.681 96.479 L 140.681 96.521 L 140.706 96.749 L 140.715 96.780 L 140.746 96.807 L 140.715 96.780 L 135.532 96.780 L 135.526 96.791 L 135.532 96.780 L 135.471 96.675 L 135.303 96.488 L 135.100 96.341 L 134.890 96.246 L 134.851 96.233 L 134.646 96.190 L 134.605 96.185 L 134.375 96.187 L 134.149 96.233 L 134.110 96.246 L 133.919 96.331 L 133.882 96.352 L 133.697 96.488 L 133.529 96.675 L 133.404 96.892 L 133.332 97.110 L 133.323 97.151 L 133.300 97.380 L 133.323 97.609 L 133.332 97.650 L 133.404 97.868 L 133.529 98.085 L 133.697 98.272 L 133.822 98.364 L 133.926 98.395 L 134.142 98.441 L 133.940 98.350 L 133.760 98.220 L 133.594 98.038 L 133.477 97.836 L 133.408 97.625 L 133.380 97.380 L 133.408 97.135 L 133.477 96.924 L 133.594 96.722 L 133.751 96.548 L 133.929 96.417 L 133.951 96.404 L 134.166 96.312 L 134.383 96.266 L 134.605 96.265 L 134.834 96.312 L 134.858 96.319 L 135.060 96.410 L 135.249 96.548 L 135.406 96.722 L 135.486 96.860 L 140.785 96.860 L 140.815 96.829 L 140.784 96.733 L 140.761 96.513 L 140.784 96.267 L 140.857 96.044 L 140.974 95.842 L 141.131 95.668 L 141.320 95.530 L 141.534 95.435 L 141.775 95.385 L 141.997 95.386 L 142.226 95.435 L 142.440 95.530 L 142.620 95.660 L 142.638 95.677 L 142.793 95.852 L 142.903 96.044 L 142.976 96.267 L 142.999 96.513 L 142.976 96.733 L 142.908 96.944 L 142.786 97.158 L 142.629 97.332 L 142.440 97.470 L 142.214 97.568 L 141.985 97.615 L 141.763 97.614 L 141.547 97.569 L 141.368 97.748 L 141.313 97.795 L 141.228 97.847 L 141.152 97.877 L 141.072 97.895 L 141.000 97.900 L 135.486 97.900 L 135.406 98.038 L 135.258 98.203 L 135.071 98.343 L 134.846 98.445 L 134.605 98.495 L 134.371 98.492 L 133.926 98.395 L 133.676 98.317 L 133.602 98.287 L 133.464 98.132 L 133.344 97.927 L 133.320 97.873 L 133.248 97.646 L 133.220 97.380 L 133.380 97.380 L 133.220 97.380 L 133.248 97.114 L 133.320 96.887 L 133.344 96.833 L 133.448 96.652 L 133.483 96.605 L 133.644 96.429 L 133.860 96.272 L 134.104 96.163 L 134.366 96.107 L 134.634 96.107 L 134.867 96.155 L 134.923 96.173 L 135.140 96.272 L 135.334 96.410 L 135.377 96.450 L 135.536 96.628 L 135.579 96.700 L 135.573 96.710 L 135.579 96.700 L 140.620 96.700 L 140.648 96.726 L 140.620 96.700 L 140.600 96.500 L 140.628 96.234 L 140.711 95.979 L 140.829 95.772 L 140.863 95.725 L 141.024 95.549 L 141.215 95.407 L 141.266 95.378 L 141.457 95.293 L 141.537 95.270 L 142.223 95.270 L 142.303 95.293 L 142.520 95.391 L 142.736 95.549 L 142.916 95.748 L 143.049 95.979 L 143.124 96.206 L 143.137 96.263 L 143.160 96.500 L 143.137 96.737 L 143.124 96.794 L 143.060 96.993 L 143.036 97.047 L 142.916 97.252 L 142.736 97.451 L 142.520 97.608 L 142.276 97.717 L 142.223 97.730 L 141.593 97.732 L 141.593 97.730 L 141.593 97.732 L 141.493 97.786 L 141.376 97.859 L 141.290 97.906 L 141.108 97.996 L 140.949 98.060 L 135.579 98.060 L 135.573 98.049 L 135.579 98.060 L 135.536 98.132 L 135.398 98.287 L 135.324 98.317 L 135.117 98.384 L 134.858 98.441" fill="none" stroke="#000000" stroke-width="0.2"/>
  <path d="M 133.220 105.000 L 133.248 105.266 L 133.331 105.521 L 133.464 105.752 L 133.623 105.930 L 133.666 105.970 L 133.835 106.093 L 133.886 106.122 L 134.104 106.217 L 134.366 106.273 L 134.605 106.274 L 134.663 106.268 L 134.896 106.217 L 135.114 106.122 L 135.165 106.093 L 135.356 105.951 L 135.536 105.752 L 135.579 105.680 L 135.573 105.670 L 135.579 105.680 L 140.138 105.680 L 140.141 105.674 L 140.138 105.680 L 140.673 106.215 L 140.681 106.212 L 140.673 106.215 L 140.663 106.263 L 140.640 106.500 L 140.668 106.766 L 140.751 107.021 L 140.884 107.252 L 141.064 107.451 L 141.280 107.608 L 141.524 107.717 L 141.757 107.768 L 141.815 107.774 L 142.025 107.774 L 142.083 107.768 L 142.316 107.717 L 142.560 107.608 L 142.776 107.451 L 142.937 107.275 L 142.971 107.228 L 143.076 107.047 L 143.101 106.990 L 143.138 106.734 L 143.149 106.527 L 143.138 106.266 L 143.101 106.010 L 143.076 105.953 L 142.955 105.748 L 142.797 105.569 L 142.754 105.530 L 142.560 105.392 L 142.343 105.293 L 142.287 105.275 L 142.083 105.232 L 142.025 105.225 L 141.786 105.227 L 141.638 105.257 L 141.635 105.267 L 141.638 105.257 L 140.880 104.501 L 140.820 104.451 L 140.774 104.420 L 140.705 104.384 L 140.654 104.362 L 140.553 104.333 L 140.420 104.320 L 135.579 104.320 L 135.573 104.330 L 135.579 104.320 L 135.536 104.248 L 135.356 104.049 L 135.165 103.907 L 135.114 103.878 L 134.896 103.783 L 134.663 103.732 L 134.605 103.725 L 134.366 103.727 L 134.104 103.783 L 133.860 103.892 L 133.644 104.049 L 133.483 104.225 L 133.448 104.272 L 133.344 104.453 L 133.320 104.507 L 133.248 104.734 L 133.220 105.000 L 133.300 105.000 L 133.326 105.249 L 133.404 105.488 L 133.529 105.705 L 133.682 105.877 L 133.713 105.905 L 133.882 106.028 L 133.919 106.049 L 134.129 106.141 L 134.375 106.193 L 134.605 106.195 L 134.646 106.190 L 134.871 106.141 L 135.100 106.039 L 135.287 105.905 L 135.318 105.877 L 135.471 105.705 L 135.532 105.600 L 135.526 105.589 L 135.532 105.600 L 140.171 105.600 L 140.174 105.594 L 140.171 105.600 L 140.764 106.192 L 140.773 106.189 L 140.764 106.192 L 140.746 106.250 L 140.720 106.500 L 140.743 106.729 L 140.752 106.770 L 140.824 106.988 L 140.938 107.188 L 140.962 107.222 L 141.117 107.392 L 141.320 107.539 L 141.530 107.634 L 141.569 107.647 L 141.795 107.693 L 142.025 107.695 L 142.066 107.690 L 142.291 107.641 L 142.520 107.539 L 142.723 107.392 L 142.891 107.205 L 143.016 106.988 L 143.094 106.749 L 143.120 106.500 L 143.094 106.250 L 143.016 106.012 L 142.902 105.812 L 142.878 105.778 L 142.738 105.623 L 142.707 105.595 L 142.520 105.461 L 142.291 105.359 L 142.066 105.310 L 142.025 105.305 L 141.795 105.307 L 141.613 105.344 L 141.610 105.355 L 141.613 105.344 L 140.830 104.563 L 140.769 104.513 L 140.736 104.491 L 140.650 104.446 L 140.556 104.416 L 140.518 104.409 L 140.420 104.400 L 135.532 104.400 L 135.526 104.411 L 135.532 104.400 L 135.471 104.295 L 135.318 104.123 L 135.287 104.095 L 135.100 103.961 L 134.890 103.866 L 134.851 103.853 L 134.625 103.807 L 134.375 103.807 L 134.129 103.859 L 133.900 103.961 L 133.697 104.108 L 133.542 104.278 L 133.518 104.312 L 133.413 104.493 L 133.396 104.531 L 133.326 104.750 L 133.300 105.000 L 133.380 105.000 L 133.404 105.233 L 133.477 105.456 L 133.594 105.658 L 133.742 105.823 L 133.760 105.840 L 133.951 105.976 L 134.154 106.065 L 134.383 106.114 L 134.617 106.114 L 134.834 106.068 L 135.060 105.970 L 135.258 105.823 L 135.406 105.658 L 135.486 105.520 L 140.205 105.520 L 140.855 106.171 L 140.824 106.267 L 140.800 106.500 L 140.828 106.745 L 140.897 106.956 L 141.007 107.148 L 141.171 107.332 L 141.360 107.470 L 141.562 107.561 L 141.803 107.614 L 142.037 107.614 L 142.254 107.568 L 142.480 107.470 L 142.669 107.332 L 142.826 107.158 L 142.943 106.956 L 143.016 106.733 L 143.040 106.500 L 143.016 106.267 L 142.943 106.044 L 142.826 105.842 L 142.660 105.660 L 142.480 105.530 L 142.266 105.435 L 142.025 105.385 L 141.803 105.386 L 141.587 105.431 L 140.779 104.624 L 140.699 104.562 L 140.619 104.520 L 140.533 104.493 L 140.420 104.480 L 135.486 104.480 L 135.406 104.342 L 135.258 104.177 L 135.060 104.030 L 134.834 103.932 L 134.617 103.886 L 134.383 103.886 L 134.154 103.935 L 133.940 104.030 L 133.751 104.168 L 133.602 104.332 L 133.483 104.533 L 133.472 104.556 L 133.404 104.767 L 133.380 105.000" fill="none" stroke="#000000" stroke-width="0.2"/>
  <path d="M 148.220 99.040 L 148.248 99.306 L 148.320 99.533 L 148.344 99.587 L 148.464 99.792 L 148.623 99.970 L 148.666 100.010 L 148.820 100.121 L 148.829 100.117 L 148.820 100.121 L 148.821 101.486 L 148.826 101.549 L 148.847 101.653 L 148.885 101.753 L 148.938 101.846 L 148.963 101.881 L 149.019 101.945 L 153.021 105.947 L 153.029 105.944 L 153.021 105.947 L 153.011 105.995 L 152.988 106.232 L 153.016 106.498 L 153.098 106.753 L 153.216 106.960 L 153.251 107.007 L 153.411 107.183 L 153.628 107.341 L 153.872 107.450 L 154.134 107.505 L 154.402 107.505 L 154.663 107.450 L 154.908 107.341 L 155.124 107.183 L 155.303 106.985 L 155.437 106.753 L 155.520 106.498 L 155.546 106.261 L 155.546 106.203 L 155.520 105.966 L 155.448 105.739 L 155.424 105.685 L 155.319 105.504 L 155.285 105.457 L 155.124 105.281 L 154.932 105.140 L 154.882 105.110 L 154.663 105.015 L 154.430 104.964 L 154.372 104.958 L 154.134 104.959 L 153.986 104.989 L 153.983 104.999 L 153.986 104.989 L 150.180 101.183 L 150.174 101.185 L 150.180 101.183 L 150.180 100.121 L 150.171 100.117 L 150.180 100.121 L 150.356 99.991 L 150.536 99.792 L 150.669 99.561 L 150.744 99.334 L 150.757 99.277 L 150.780 99.040 L 150.752 98.774 L 150.669 98.519 L 150.551 98.312 L 150.517 98.265 L 150.356 98.089 L 150.165 97.947 L 150.114 97.918 L 149.896 97.823 L 149.843 97.810 L 149.157 97.810 L 149.077 97.833 L 148.860 97.931 L 148.644 98.089 L 148.464 98.288 L 148.331 98.519 L 148.248 98.774 L 148.220 99.040 L 148.300 99.040 L 148.323 99.269 L 148.332 99.310 L 148.404 99.528 L 148.529 99.745 L 148.697 99.932 L 148.882 100.068 L 148.900 100.079 L 148.908 100.075 L 148.900 100.079 L 148.900 101.464 L 148.910 101.574 L 148.925 101.635 L 148.959 101.723 L 149.006 101.804 L 149.076 101.889 L 153.112 105.925 L 153.121 105.922 L 153.112 105.925 L 153.094 105.983 L 153.068 106.232 L 153.091 106.461 L 153.099 106.502 L 153.172 106.720 L 153.286 106.920 L 153.310 106.954 L 153.465 107.124 L 153.668 107.271 L 153.877 107.366 L 153.917 107.379 L 154.142 107.426 L 154.372 107.427 L 154.414 107.422 L 154.639 107.373 L 154.849 107.281 L 154.885 107.260 L 155.071 107.124 L 155.239 106.938 L 155.364 106.720 L 155.442 106.482 L 155.468 106.232 L 155.442 105.983 L 155.364 105.744 L 155.239 105.527 L 155.071 105.340 L 154.885 105.204 L 154.849 105.184 L 154.639 105.091 L 154.414 105.042 L 154.372 105.038 L 154.142 105.039 L 153.960 105.076 L 153.957 105.087 L 153.960 105.076 L 150.100 101.216 L 150.094 101.218 L 150.100 101.216 L 150.100 100.079 L 150.091 100.075 L 150.100 100.079 L 150.118 100.068 L 150.303 99.932 L 150.471 99.745 L 150.596 99.528 L 150.668 99.310 L 150.677 99.269 L 150.700 99.040 L 150.674 98.791 L 150.596 98.552 L 150.471 98.335 L 150.303 98.148 L 150.118 98.012 L 150.081 97.991 L 149.871 97.899 L 149.646 97.850 L 149.605 97.845 L 149.375 97.847 L 149.129 97.899 L 148.919 97.991 L 148.882 98.012 L 148.697 98.148 L 148.529 98.335 L 148.404 98.552 L 148.332 98.770 L 148.323 98.811 L 148.300 99.040 L 148.380 99.040 L 148.408 98.795 L 148.477 98.584 L 148.594 98.382 L 148.751 98.208 L 148.929 98.077 L 149.154 97.975 L 149.395 97.925 L 149.617 97.926 L 149.846 97.975 L 150.060 98.070 L 150.240 98.200 L 150.406 98.382 L 150.523 98.584 L 150.596 98.807 L 150.620 99.040 L 150.597 99.260 L 150.523 99.496 L 150.406 99.698 L 150.249 99.872 L 150.071 100.003 L 150.020 100.028 L 150.020 101.249 L 153.935 105.164 L 154.151 105.118 L 154.372 105.118 L 154.614 105.167 L 154.838 105.269 L 155.017 105.400 L 155.174 105.574 L 155.291 105.777 L 155.363 105.999 L 155.388 106.232 L 155.363 106.465 L 155.291 106.688 L 155.174 106.891 L 155.017 107.065 L 154.817 107.208 L 154.614 107.297 L 154.397 107.344 L 154.151 107.346 L 153.910 107.293 L 153.708 107.202 L 153.518 107.065 L 153.355 106.880 L 153.245 106.688 L 153.175 106.477 L 153.148 106.232 L 153.172 105.999 L 153.203 105.903 L 149.132 101.832 L 149.085 101.778 L 149.041 101.709 L 149.009 101.634 L 148.988 101.555 L 148.980 101.474 L 148.980 100.028 L 148.929 100.003 L 148.751 99.872 L 148.587 99.688 L 148.477 99.496 L 148.408 99.285 L 148.380 99.040" fill="none" stroke="#000000" stroke-width="0.2"/>
  <path d="M 148.220 93.960 L 148.248 94.226 L 148.320 94.453 L 148.344 94.507 L 148.464 94.712 L 148.644 94.911 L 148.835 95.053 L 148.886 95.082 L 149.077 95.167 L 149.157 95.190 L 149.843 95.190 L 149.923 95.167 L 150.140 95.068 L 150.356 94.911 L 150.536 94.712 L 150.579 94.640 L 150.573 94.630 L 150.579 94.640 L 158.306 94.640 L 158.316 94.626 L 158.306 94.640 L 158.331 94.711 L 158.448 94.918 L 158.483 94.965 L 158.644 95.141 L 158.860 95.298 L 159.104 95.407 L 159.366 95.463 L 159.634 95.463 L 159.896 95.407 L 160.140 95.298 L 160.356 95.141 L 160.517 94.965 L 160.551 94.918 L 160.669 94.711 L 160.744 94.484 L 160.757 94.427 L 160.780 94.190 L 160.752 93.924 L 160.680 93.697 L 160.656 93.643 L 160.535 93.438 L 160.377 93.260 L 160.334 93.220 L 160.180 93.109 L 160.171 93.113 L 160.180 93.109 L 160.179 88.494 L 160.252 88.266 L 160.280 88.000 L 160.252 87.734 L 160.180 87.507 L 160.156 87.453 L 160.035 87.248 L 159.877 87.070 L 159.834 87.030 L 159.640 86.891 L 159.423 86.793 L 159.367 86.775 L 159.134 86.727 L 158.866 86.727 L 158.633 86.775 L 158.577 86.793 L 158.360 86.891 L 158.144 87.049 L 157.983 87.225 L 157.948 87.272 L 157.831 87.479 L 157.748 87.734 L 157.720 88.000 L 157.748 88.266 L 157.831 88.521 L 157.964 88.752 L 158.144 88.951 L 158.360 89.108 L 158.604 89.217 L 158.820 89.265 L 158.838 89.250 L 158.820 89.265 L 158.820 93.109 L 158.828 93.113 L 158.820 93.109 L 158.666 93.220 L 158.623 93.260 L 158.604 93.280 L 158.606 93.284 L 158.604 93.280 L 150.579 93.280 L 150.573 93.290 L 150.579 93.280 L 150.536 93.208 L 150.356 93.009 L 150.140 92.852 L 149.923 92.753 L 149.843 92.730 L 149.157 92.730 L 149.077 92.753 L 148.886 92.838 L 148.835 92.867 L 148.644 93.009 L 148.464 93.208 L 148.344 93.413 L 148.320 93.467 L 148.248 93.694 L 148.220 93.960 L 148.300 93.960 L 148.326 94.209 L 148.404 94.448 L 148.529 94.665 L 148.682 94.837 L 148.713 94.865 L 148.882 94.988 L 148.919 95.009 L 149.129 95.101 L 149.375 95.153 L 149.625 95.153 L 149.851 95.107 L 149.890 95.094 L 150.100 94.999 L 150.287 94.865 L 150.318 94.837 L 150.471 94.665 L 150.532 94.560 L 150.526 94.549 L 150.532 94.560 L 158.364 94.560 L 158.375 94.545 L 158.364 94.560 L 158.404 94.678 L 158.518 94.878 L 158.542 94.912 L 158.682 95.067 L 158.713 95.095 L 158.900 95.229 L 159.110 95.324 L 159.149 95.337 L 159.375 95.383 L 159.625 95.383 L 159.871 95.331 L 160.100 95.229 L 160.303 95.082 L 160.458 94.912 L 160.482 94.878 L 160.596 94.678 L 160.668 94.460 L 160.677 94.419 L 160.700 94.190 L 160.677 93.961 L 160.668 93.920 L 160.596 93.702 L 160.482 93.502 L 160.458 93.468 L 160.303 93.298 L 160.118 93.162 L 160.100 93.151 L 160.091 93.155 L 160.100 93.151 L 160.098 88.481 L 160.168 88.270 L 160.177 88.229 L 160.200 88.000 L 160.177 87.771 L 160.168 87.730 L 160.104 87.531 L 160.087 87.493 L 159.971 87.295 L 159.803 87.108 L 159.618 86.972 L 159.581 86.951 L 159.371 86.859 L 159.125 86.807 L 158.875 86.807 L 158.629 86.859 L 158.400 86.961 L 158.197 87.108 L 158.029 87.295 L 157.904 87.512 L 157.826 87.751 L 157.801 87.979 L 157.801 88.021 L 157.826 88.249 L 157.904 88.488 L 158.029 88.705 L 158.182 88.877 L 158.213 88.905 L 158.400 89.039 L 158.610 89.134 L 158.649 89.147 L 158.875 89.193 L 158.900 89.194 L 158.918 89.180 L 158.900 89.194 L 158.900 93.151 L 158.909 93.155 L 158.900 93.151 L 158.882 93.162 L 158.713 93.285 L 158.682 93.313 L 158.640 93.360 L 158.643 93.366 L 158.640 93.360 L 150.532 93.360 L 150.526 93.371 L 150.532 93.360 L 150.471 93.255 L 150.318 93.083 L 150.287 93.055 L 150.100 92.921 L 149.871 92.819 L 149.646 92.770 L 149.605 92.765 L 149.375 92.767 L 149.129 92.819 L 148.919 92.911 L 148.882 92.932 L 148.713 93.055 L 148.682 93.083 L 148.529 93.255 L 148.404 93.472 L 148.326 93.711 L 148.300 93.960 L 148.380 93.960 L 148.404 94.193 L 148.477 94.416 L 148.594 94.618 L 148.742 94.783 L 148.929 94.923 L 148.951 94.936 L 149.154 95.025 L 149.383 95.074 L 149.629 95.072 L 149.846 95.025 L 150.060 94.930 L 150.258 94.783 L 150.406 94.618 L 150.486 94.480 L 158.422 94.480 L 158.477 94.646 L 158.587 94.838 L 158.742 95.013 L 158.940 95.160 L 159.142 95.251 L 159.383 95.304 L 159.617 95.304 L 159.846 95.255 L 160.071 95.153 L 160.249 95.022 L 160.398 94.858 L 160.517 94.657 L 160.596 94.423 L 160.620 94.190 L 160.592 93.945 L 160.523 93.734 L 160.413 93.542 L 160.249 93.358 L 160.071 93.227 L 160.020 93.202 L 160.020 88.500 L 160.017 88.467 L 160.028 88.444 L 160.097 88.220 L 160.120 88.000 L 160.097 87.780 L 160.028 87.556 L 160.017 87.533 L 159.906 87.342 L 159.749 87.168 L 159.560 87.030 L 159.358 86.939 L 159.117 86.886 L 158.883 86.886 L 158.654 86.935 L 158.440 87.030 L 158.251 87.168 L 158.094 87.342 L 157.977 87.544 L 157.904 87.767 L 157.881 87.987 L 157.904 88.233 L 157.977 88.456 L 158.094 88.658 L 158.242 88.823 L 158.440 88.970 L 158.642 89.061 L 158.870 89.112 L 158.980 89.115 L 158.980 93.202 L 158.929 93.227 L 158.760 93.350 L 158.676 93.440 L 150.486 93.440 L 150.406 93.302 L 150.258 93.137 L 150.060 92.990 L 149.834 92.892 L 149.617 92.846 L 149.395 92.845 L 149.166 92.892 L 149.142 92.899 L 148.940 92.990 L 148.742 93.137 L 148.594 93.302 L 148.477 93.504 L 148.404 93.727 L 148.380 93.960" fill="none" stroke="#000000" stroke-width="0.2"/>
</svg>
