<?xml version="1.0" encoding="UTF-8"?>
<svg xmlns="http://www.w3.org/2000/svg" width="35.50mm" height="39.39mm" viewBox="129.00 75.38 35.50 39.39">
  <circle cx="134.000" cy="86.830" r="0.400" fill="none" stroke="#000000" stroke-width="0.1"/>
  <circle cx="136.500" cy="82.500" r="0.400" fill="none" stroke="#000000" stroke-width="0.1"/>
  <circle cx="141.880" cy="91.420" r="0.400" fill="none" stroke="#000000" stroke-width="0.1"/>
  <circle cx="141.880" cy="93.960" r="0.400" fill="none" stroke="#000000" stroke-width="0.1"/>
  <circle cx="134.500" cy="97.380" r="0.400" fill="none" stroke="#000000" stroke-width="0.1"/>
  <circle cx="134.500" cy="105.000" r="0.400" fill="none" stroke="#000000" stroke-width="0.1"/>
  <circle cx="141.880" cy="99.040" r="0.400" fill="none" stroke="#000000" stroke-width="0.1"/>
  <circle cx="141.880" cy="96.500" r="0.400" fill="none" stroke="#000000" stroke-width="0.1"/>
  <circle cx="149.500" cy="91.420" r="0.400" fill="none" stroke="#000000" stroke-width="0.1"/>
  <circle cx="149.500" cy="93.960" r="0.400" fill="none" stroke="#000000" stroke-width="0.1"/>
  <circle cx="149.500" cy="96.500" r="0.400" fill="none" stroke="#000000" stroke-width="0.1"/>
  <circle cx="149.500" cy="99.040" r="0.400" fill="none" stroke="#000000" stroke-width="0.1"/>
  <circle cx="154.268" cy="106.232" r="0.400" fill="none" stroke="#000000" stroke-width="0.1"/>
  <circle cx="150.732" cy="109.768" r="0.400" fill="none" stroke="#000000" stroke-width="0.1"/>
  <circle cx="159.500" cy="101.810" r="0.400" fill="none" stroke="#000000" stroke-width="0.1"/>
  <circle cx="159.500" cy="94.190" r="0.400" fill="none" stroke="#000000" stroke-width="0.1"/>
  <circle cx="159.000" cy="88.000" r="0.400" fill="none" stroke="#000000" stroke-width="0.1"/>
  <circle cx="159.000" cy="80.380" r="0.400" fill="none" stroke="#000000" stroke-width="0.1"/>
  <circle cx="141.920" cy="106.500" r="0.450" fill="none" stroke="#000000" stroke-width="0.1"/>
  <circle cx="144.460" cy="106.500" r="0.450" fill="none" stroke="#000000" stroke-width="0.1"/>
</svg>
