<?xml version="1.0" encoding="UTF-8"?>
<svg xmlns="http://www.w3.org/2000/svg" width="84.46mm" height="92.57mm" viewBox="93.86 38.60 84.46 92.57">
  <path d="M 98.860 88.103 L 98.866 88.180 L 98.887 88.254 L 98.921 88.323 L 98.968 88.385 L 99.026 88.436 L 99.092 88.475 L 99.165 88.500 L 99.242 88.511 L 99.319 88.507 L 99.394 88.488 L 99.463 88.456 L 99.526 88.410 L 100.640 87.420 L 102.732 85.560 L 103.846 84.570 L 103.846 125.772 L 103.854 125.850 L 103.876 125.925 L 103.913 125.994 L 103.963 126.055 L 104.024 126.105 L 104.093 126.142 L 104.168 126.164 L 104.246 126.172 L 134.877 126.172 L 137.677 126.172 L 168.308 126.172 L 168.386 126.164 L 168.461 126.142 L 168.530 126.105 L 168.591 126.055 L 168.641 125.994 L 168.678 125.925 L 168.701 125.850 L 168.708 125.772 L 168.708 85.252 L 172.671 88.424 L 172.734 88.465 L 172.803 88.493 L 172.876 88.509 L 172.951 88.510 L 173.024 88.498 L 173.095 88.472 L 173.159 88.433 L 173.214 88.384 L 173.260 88.324 L 173.294 88.258 L 173.314 88.186 L 173.321 88.111 L 173.321 83.342 L 173.320 80.542 L 173.320 75.772 L 173.314 75.704 L 173.296 75.637 L 173.268 75.575 L 173.229 75.518 L 173.181 75.469 L 136.261 43.697 L 136.203 43.655 L 136.139 43.625 L 136.070 43.606 L 135.999 43.600 L 135.928 43.606 L 135.859 43.625 L 135.795 43.656 L 135.738 43.698 L 112.029 64.314 L 112.029 47.866 L 112.022 47.787 L 111.999 47.712 L 111.962 47.643 L 111.912 47.583 L 111.851 47.533 L 111.782 47.496 L 111.707 47.473 L 111.629 47.466 L 109.154 47.466 L 106.354 47.466 L 103.878 47.466 L 103.800 47.473 L 103.725 47.496 L 103.656 47.533 L 103.595 47.583 L 103.546 47.643 L 103.509 47.712 L 103.486 47.787 L 103.478 47.866 L 103.478 71.274 L 99.234 75.433 L 99.185 75.492 L 99.147 75.559 L 99.124 75.633 L 99.114 75.710 L 98.860 88.103" fill="none" stroke="#000000" stroke-width="0.2"/>
</svg>
